<?xml version="1.0" encoding="utf-8"?>
<!-- Generator: Adobe Illustrator 27.0.0, SVG Export Plug-In . SVG Version: 6.00 Build 0)  -->
<svg version="1.1" id="Ebene_1" xmlns="http://www.w3.org/2000/svg" xmlns:xlink="http://www.w3.org/1999/xlink" x="0px" y="0px"
	 viewBox="0 0 114 126" style="enable-background:new 0 0 114 126;" xml:space="preserve">
<style type="text/css">
	.st0{opacity:0.8;fill:#FFFFFF;stroke:#2C2C54;stroke-width:6;stroke-linecap:round;stroke-miterlimit:10;}
	.st1{opacity:0.8;fill:none;stroke:#2C2C54;stroke-width:6;stroke-linecap:round;stroke-miterlimit:10;}
	.st2{fill:#2C2C54;stroke:#2C2C54;stroke-width:6;stroke-linecap:round;stroke-miterlimit:10;}
</style>
<g>
	<line class="st0" x1="57.3" y1="11" x2="57.3" y2="115.6"/>
	<line class="st1" x1="12" y1="89.4" x2="102.6" y2="37.1"/>
	<line class="st1" x1="12" y1="37.1" x2="102.6" y2="89.4"/>
	<circle class="st2" cx="57.3" cy="9.8" r="6.8"/>
	<circle class="st2" cx="9.8" cy="35.5" r="6.8"/>
	<circle class="st2" cx="57.3" cy="116.2" r="6.8"/>
	<circle class="st2" cx="9.8" cy="90" r="6.8"/>
	<circle class="st2" cx="104.2" cy="90" r="6.8"/>
	<circle class="st2" cx="104.2" cy="35.5" r="6.8"/>
</g>
<line class="st0" x1="27" y1="62.8" x2="87.3" y2="62.8"/>
<line class="st1" x1="72.2" y1="89" x2="42.1" y2="36.7"/>
<line class="st1" x1="42.1" y1="89" x2="72.2" y2="36.7"/>
<circle class="st2" cx="26.3" cy="62.8" r="3.9"/>
<circle class="st2" cx="41.1" cy="90.2" r="3.9"/>
<circle class="st2" cx="87.7" cy="62.8" r="3.9"/>
<circle class="st2" cx="72.6" cy="90.2" r="3.9"/>
<circle class="st2" cx="72.6" cy="35.8" r="3.9"/>
<circle class="st2" cx="41.1" cy="35.8" r="3.9"/>
</svg>
