<?xml version="1.0" encoding="utf-8"?>
<!-- Generator: Adobe Illustrator 27.0.0, SVG Export Plug-In . SVG Version: 6.00 Build 0)  -->
<svg version="1.1" id="Ebene_1" xmlns="http://www.w3.org/2000/svg" xmlns:xlink="http://www.w3.org/1999/xlink" x="0px" y="0px"
	 viewBox="0 0 208.5 208.2" style="enable-background:new 0 0 208.5 208.2;" xml:space="preserve">
<style type="text/css">
	.st0{opacity:0.8;fill:#E6E6FF;stroke:#8B8BC9;stroke-width:3;stroke-miterlimit:10;}
	.st1{opacity:0.8;fill:#FFFFFF;stroke:#2C2C54;stroke-width:3;stroke-miterlimit:10;}
	.st2{opacity:0.8;}
	.st3{fill:none;stroke:#FC5C65;stroke-width:3;stroke-linecap:round;stroke-miterlimit:10;}
	.st4{fill:#FC5C65;}
	.st5{fill:none;stroke:#FD9644;stroke-width:3;stroke-linecap:round;stroke-miterlimit:10;}
	.st6{fill:#FD9644;}
	.st7{fill:none;stroke:#FED330;stroke-width:3;stroke-linecap:round;stroke-miterlimit:10;}
	.st8{fill:#FED330;}
	.st9{opacity:0.8;fill:#FFFFFF;stroke:#FED330;stroke-width:6;stroke-linecap:round;stroke-miterlimit:10;}
	.st10{opacity:0.8;fill:none;stroke:#FC5C65;stroke-width:6;stroke-linecap:round;stroke-miterlimit:10;}
	.st11{opacity:0.8;fill:none;stroke:#FD9644;stroke-width:6;stroke-linecap:round;stroke-miterlimit:10;}
	.st12{opacity:0.8;fill:none;stroke:#4B7BEC;stroke-width:6;stroke-linecap:round;stroke-miterlimit:10;}
	.st13{opacity:0.8;fill:none;stroke:#2BCBBA;stroke-width:6;stroke-linecap:round;stroke-miterlimit:10;}
</style>
<path class="st0" d="M158.8,29.5L39.1,98.6c-3.7,2.1-3.7,7.4,0,9.5l119.7,69.1c3.7,2.1,8.2-0.5,8.2-4.8l0-138.3
	C167.1,30,162.5,27.4,158.8,29.5z"/>
<path class="st1" d="M163.6,29.2"/>
<g class="st2">
	<g>
		<path class="st3" d="M10.5,115.1c-5.2-1.4-9-6.1-9-11.8c0-6.7,5.5-12.2,12.2-12.2"/>
		<g>
			<path class="st4" d="M10.8,111.7c1.8,0.3,3.1,2,2.9,3.8s-2,3.1-3.8,2.9c-1.8-0.3-3.1-2-2.9-3.8C7.3,112.7,9,111.4,10.8,111.7z"/>
		</g>
	</g>
</g>
<g class="st2">
	<g>
		<path class="st5" d="M185.9,188.5c2.7,4.7,2,10.7-2,14.7c-4.8,4.8-12.5,4.8-17.3,0"/>
		<g>
			<path class="st6" d="M183.3,190.6c-1.1-1.5-0.8-3.6,0.7-4.7s3.6-0.8,4.7,0.7c1.1,1.5,0.8,3.6-0.7,4.7S184.4,192.1,183.3,190.6z"
				/>
		</g>
	</g>
</g>
<g class="st2">
	<g>
		<path class="st7" d="M165.4,5.7c3.5-4.1,9.4-5.5,14.5-3c6.1,2.9,8.6,10.2,5.7,16.3"/>
		<g>
			<path class="st8" d="M168.3,7.5c-1,1.6-3.1,2-4.7,0.9c-1.6-1-2-3.1-0.9-4.7c1-1.6,3.1-2,4.7-0.9C168.9,3.8,169.4,5.9,168.3,7.5z"
				/>
		</g>
	</g>
</g>
<line class="st9" x1="175.2" y1="10.9" x2="79.3" y2="176.9"/>
<line class="st10" x1="13.8" y1="102.9" x2="205.5" y2="102.9"/>
<line class="st11" x1="79.7" y1="29.9" x2="175.6" y2="195.9"/>
<path class="st12" d="M107.4,77.8c4.2-2.3,9-3.7,14.1-3.7c16,0,29,13,29,29"/>
<path class="st13" d="M105.5,131.7c-11.3-6.2-19-18.2-19-32c0-20.2,16.3-36.5,36.5-36.5s36.5,16.3,36.5,36.5"/>
</svg>
